<svg xmlns="http://www.w3.org/2000/svg" xmlns:xlink="http://www.w3.org/1999/xlink" xmlns:lucid="lucid" width="901" height="347"><g transform="translate(-1192 -561)" lucid:page-tab-id="0_0"><path d="M1220 586c0-3.3 2.7-6 6-6h820.8c3.32 0 6 2.7 6 6v258c0 3.3-2.68 6-6 6H1226c-3.3 0-6-2.7-6-6z" stroke="#000" stroke-opacity="0" stroke-width="3" fill="#fff" fill-opacity="0"/><use xlink:href="#a" transform="matrix(1,0,0,1,1225,585) translate(28.886666666666713 163.79166666666669)"/><path d="M1220 796c0-3.3 2.7-6 6-6h820.8c3.32 0 6 2.7 6 6v78c0 3.3-2.68 6-6 6H1226c-3.3 0-6-2.7-6-6z" stroke="#000" stroke-opacity="0" stroke-width="3" fill="#fff" fill-opacity="0"/><use xlink:href="#b" transform="matrix(1,0,0,1,1225,795) translate(334.65000000000003 49.16666666666666)"/><defs><path fill="#de5f85" d="M828-184H234v-416h594v-185l-693 1-85 85v614l85 85h693v-184zm-34 34v116H149l-65-66v-585l65-65h645v116H200v484h594zm-39 39H161v-562h594v-38H165l-42 42v553l42 43h590v-38" id="c"/><path fill="#333" d="M635-699l-85-85H135l-85 85v614l85 85h415l85-85v-614zm-34 14v585l-65 66H149l-65-66v-585l65-65h387zm-39 16l-42-42H165l-42 42v553l42 43h355l42-43v-553zM161-111v-562h363v562H161zm39-39h285v-484H200v484zm34-34v-416h217v416H234" id="d"/><path fill="#333" d="M735-699l-85-85H50V0h184v-600h67V0h184v-600h66V0h184v-699zm-34 14v651H585v-600H451v600H335v-600H200v600H84v-716h552zm-39 16l-42-42H123v638h38v-600h213v600h38v-600h212v600h38v-596" id="e"/><path fill="#333" d="M633-699l-85-85H50V0h184v-300h314l85-85v-314zm-34 14v286l-65 65H200v300H84v-716h450zm-39 16l-42-42H123v638h38v-300h357l42-42v-254zM161-411v-262h361v262H161zm39-39h283v-184H200v184zm34-34v-116h215v116H234" id="f"/><path fill="#333" d="M636-784H452v600H234v-600H50v699l85 85h416l85-85v-699zm-34 34v650l-65 66H149l-65-66v-650h116v600h286v-600h116zm-39 39h-38v600H161v-600h-38v595l42 43h356l42-43v-595" id="g"/><path fill="#de5f85" d="M631-399l-85-85H234v-116h397v-184H135l-85 85v314l85 85h312v116H50V0h496l85-85v-314zm-34 14v285l-65 66H84v-116h397v-184H149l-65-65v-286l65-65h448v116H200v184h332zm-39 16l-42-42H161v-262h397v-38H165l-42 42v254l42 42h355v262H123v38h393l42-43v-253" id="h"/><path fill="#333" d="M630-300v-184H234v-116h395v-186l-494 2-85 85V0h184v-300h396zm-34-34H200v300H84v-651l65-65 446-1v117H200v184h396v116zm-39-39v-38H161v-262h395v-39l-391 1-42 42v596h38v-300h396" id="i"/><path fill="#333" d="M240 0v-784H55V0h185zm-34-34H89v-716h117v716zM30-894l99 99 136-138-99-99zM167-73v-638h-39v638h39zM78-894l89-89 50 51-88 89" id="j"/><path fill="#333" d="M633-699l-86-85H135l-85 85V0h184v-300h215V0h184v-699zm-34 14v651H483v-300H200v300H84v-651l65-65h384zm-39 17l-43-43H165l-42 42v596h38v-300h361v300h38v-595zM161-411v-262h361v262H161zm39-39h283v-184H200v184zm34-34v-116h215v116H234" id="k"/><g id="a"><use transform="matrix(0.11333333333333333,0,0,0.11333333333333333,0,0)" xlink:href="#c"/><use transform="matrix(0.11333333333333333,0,0,0.11333333333333333,99.50666666666666,0)" xlink:href="#d"/><use transform="matrix(0.11333333333333333,0,0,0.11333333333333333,177.14,0)" xlink:href="#e"/><use transform="matrix(0.11333333333333333,0,0,0.11333333333333333,266.1066666666667,0)" xlink:href="#f"/><use transform="matrix(0.11333333333333333,0,0,0.11333333333333333,343.62666666666667,0)" xlink:href="#g"/><use transform="matrix(0.11333333333333333,0,0,0.11333333333333333,421.14666666666665,0)" xlink:href="#h"/><use transform="matrix(0.11333333333333333,0,0,0.11333333333333333,498.66666666666663,0)" xlink:href="#d"/><use transform="matrix(0.11333333333333333,0,0,0.11333333333333333,576.3,0)" xlink:href="#i"/><use transform="matrix(0.11333333333333333,0,0,0.11333333333333333,653.8199999999999,0)" xlink:href="#j"/><use transform="matrix(0.11333333333333333,0,0,0.11333333333333333,687.5933333333332,0)" xlink:href="#k"/></g><path fill="#333" d="M301-641V0H200v-601H50v-101h190" id="l"/><path fill="#333" d="M350-404v102H248v-102h102zM151-101h299v-500H151v500zm400-540v580L490 0H110L50-61v-580l60-61h380" id="m"/><g id="b"><use transform="matrix(0.03333333333333332,0,0,0.03333333333333332,0,0)" xlink:href="#l"/><use transform="matrix(0.03333333333333332,0,0,0.03333333333333332,11.699999999999996,0)" xlink:href="#l"/><use transform="matrix(0.03333333333333332,0,0,0.03333333333333332,23.39999999999999,0)" xlink:href="#l"/><use transform="matrix(0.03333333333333332,0,0,0.03333333333333332,35.09999999999999,0)" xlink:href="#l"/><use transform="matrix(0.03333333333333332,0,0,0.03333333333333332,46.79999999999998,0)" xlink:href="#l"/><use transform="matrix(0.03333333333333332,0,0,0.03333333333333332,58.499999999999986,0)" xlink:href="#l"/><use transform="matrix(0.03333333333333332,0,0,0.03333333333333332,70.19999999999997,0)" xlink:href="#m"/><use transform="matrix(0.03333333333333332,0,0,0.03333333333333332,90.23333333333329,0)" xlink:href="#m"/><use transform="matrix(0.03333333333333332,0,0,0.03333333333333332,110.26666666666662,0)" xlink:href="#l"/><use transform="matrix(0.03333333333333332,0,0,0.03333333333333332,121.96666666666661,0)" xlink:href="#m"/><use transform="matrix(0.03333333333333332,0,0,0.03333333333333332,141.99999999999994,0)" xlink:href="#l"/></g></defs></g></svg>